<svg fill="none" height="24" viewBox="0 0 140 24" width="140" xmlns="http://www.w3.org/2000/svg"><path d="m139.974 14.4031-.011 5.6138c-6.509 2.3921-13.688 2.3783-20.187-.039l.013-5.6152c2.745 1.3927 6.257 2.245 10.089 2.2519 3.832.007 7.346-.8314 10.096-2.2115zm-10.086-2.9804c-4.702-.0097-8.692-1.3662-10.087-3.23516v3.85356c2.518 1.5319 6.103 2.4873 10.087 2.4957 3.985.0083 7.571-.9373 10.099-2.4567v-3.85356c-1.396 1.86476-5.391 3.20596-10.099 3.19616zm.023-11.41992893c-4.11-.00696338-7.763 1.01527893-10.099 2.60849893v2.6628c1.397-1.8648 5.392-3.20317 10.102-3.19481 1.903-.01117 3.799.23345 5.634.72697-1.891 1.08907-5.066 2.92462-5.677 3.27419-.318-.16016-1.384-.70748-2.643-1.3495l-2.156 1.24365 4.862 2.48734 8.122-4.69333c.855.4554 1.518.97487 1.944 1.54586v-2.66279c-2.33-1.60715-5.979-2.64329394-10.089-2.65165z" fill="#e62429"/><g fill="#000"><path d="m25.8878 18.921h-2.9925v-1.6141h-.0428c-.9676 1.1517-2.337 1.8857-3.99 1.8829-2.8771-.007-4.1211-1.9901-4.1154-4.6641l.0156-7.48981h3.1593l-.0128 6.33811c0 1.4525.0156 3.4092 2.0434 3.4148 2.2872 0 2.7888-2.4149 2.7916-3.9357l.0114-5.80885h3.1607z"/><path d="m30.5283 7.68484c1.3321-.57038 2.768-.87302 4.2223-.88992 3.705 0 4.0513 1.50549 4.0442 5.01368v1.5208c0 1.2005.0228 2.0987.0399 2.9747.0242.8983.1425 1.7283.2095 2.6461h-2.8501c-.1182-.6211-.1154-1.4038-.1425-1.7743h-.047c-.7339 1.3147-2.3156 2.0473-3.7549 2.0431-2.1375 0-4.2422-1.2743-4.238-3.5318 0-1.7757.8807-2.8105 2.0834-3.3856 1.2027-.5752 2.7588-.6838 4.0798-.681h1.7456c0-1.91359.3121-2.5584-1.5504-2.56258-1.3438 0-2.6875.50138-3.7506 1.28408zm2.5037 9.26966c.429.0098.8542-.0809 1.2399-.2646.3858-.1836.7209-.4549.9774-.791.5188-.6685.6641-1.5208.6669-2.4428h-1.3679c-1.4151 0-3.5156.2228-3.5184 2.0417-.0014 1.0138.8707 1.4539 2.0021 1.4567z"/><path d="m41.5531 7.08316h2.8044v2.69762h.0485c.1425-1.10579 1.4436-2.97059 3.3303-2.96641.3256-.01378.6514.01859.9675.0961l-.0071 3.10983c-.285-.16293-.855-.25623-1.4165-.25763-2.565 0-2.5749 3.12933-2.5792 4.83533l-.0086 4.3536h-3.1592z"/><path d="m58.7236 17.6494h-.047c-.9462 1.1504-2.2444 1.6086-3.7292 1.6058-3.7264-.0084-5.0873-3.0054-5.0802-6.2559 0-3.27141 1.3808-6.17236 5.1044-6.1654 1.5817 0 2.689.53479 3.6281 1.67122h.0484l.0114-5.64592 3.1635-2.297921-.037 18.434821h-3.0652zm-2.8998-.791c2.099 0 2.7872-2.1587 2.7901-3.8424 0-1.6573-.7923-3.77973-2.8215-3.78391-2.0506 0-2.622 2.18371-2.6263 3.77421-.0029 1.635.5828 3.8493 2.6577 3.8521z"/><path d="m66.3502 9.39081h-2.3356l.2409-2.25892h2.099v-1.45118l3.1664-3.06389-.0086 4.51507h2.8044l-.2408 2.25892h-2.565l-.0114 5.53029c0 1.0139.285 1.9581 1.4834 1.9609.57 0 1.1543-.1128 1.4849-.3189l.0413 2.4414c-.7603.2019-1.5464.2958-2.3341.2785-2.4767 0-3.8476-1.5055-3.8376-3.8563z"/><path d="m74.5604 7.14864h3.1606l-.0242 11.86696h-3.1607zm1.5889-5.11251c.2985.00028.5902.08708.8383.24943.248.16235.4412.39295.5551.66263s.1434.56631.0848.85239c-.0586.28607-.2027.54874-.4141.75475s-.4806.34611-.7734.40259c-.2929.05648-.5964.0268-.872-.0853-.2756-.11209-.511-.30156-.6764-.54444-.1654-.24287-.2534-.52824-.2529-.81999.0038-.38977.164-.76251.4463-1.03787.2823-.27535.664-.43128 1.0628-.43419z"/><path d="m80.993 7.16119h2.9469v1.66147h.0485c.3872-.59245.9212-1.07984 1.5524-1.417.6312-.33717 1.3393-.51321 2.0586-.51185 1.6972 0 2.9013.62809 3.5796 2.10294.7339-1.4275 2.3156-2.08902 3.8005-2.08902 2.9925 0 3.8475 2.01381 3.8347 4.66127l-.0157 7.4898h-3.1606l.0156-7.0748c0-1.1058 0-2.67251-1.8112-2.67669-2.0976 0-2.3612 2.43999-2.364 3.98309l-.0129 5.7615h-3.1606l.0142-7.0734c0-1.1072 0-2.67398-1.8098-2.67816-2.099 0-2.3612 2.43996-2.3655 3.98306l-.0114 5.7601h-3.1606z"/><path d="m111.725 18.421c-1.154.6197-2.476.94-4.173.9373-4.008-.0084-6.339-2.2701-6.33-6.164.007-3.43438 1.875-6.26709 5.647-6.25873 4.503.00835 5.77 3.03047 5.761 7.17783l-8.392-.0167c.143 1.9136 1.502 2.9998 3.458 3.004 1.533 0 2.619-.5473 3.799-1.1921zm-2.107-6.4342c-.093-1.4971-.798-2.78535-2.565-2.78535s-2.666 1.19355-2.81 2.78535z"/><path d="m8.87498 8.63328c-.87068-1.36204-2.11896-1.89404-3.7221-1.89683-3.63092 0-5.14857719 3.28675-5.15285221 6.14305-.00712504 3.1795 1.35520221 5.9886 4.93767221 6.0011 1.76986 0 3.18632-.869 3.7777-1.8815h.04843c0 2.0444-.15246 4.5958-3.61523 4.5958-.33124-.0332-.65712-.1057-.97044-.2158-.57-.2382-.78233-.546-.78233-.546l-2.31563 1.2534c.40939.4934.91085.9065 1.47775 1.2172.79547.4144 1.67467.6522 2.57496.6964 5.08159 0 6.78159-3.0305 6.78729-6.2545l.0228-10.7153zm-2.89273 7.85192c-1.81547 0-2.6833-1.9874-2.68045-3.5987 0-1.8216.69111-3.76022 2.83718-3.75186 1.83826 0 2.63626 1.67126 2.63198 3.69336-.00285 1.9804-.80938 3.6614-2.78871 3.6516z"/></g></svg>